<?xml version="1.0" encoding="UTF-8" standalone="no"?>
<svg
   role="img"
   viewBox="0 0 24 24"
   version="1.1"
   id="svg1239"
   sodipodi:docname="github.svg"
   inkscape:version="1.1.1 (3bf5ae0d25, 2021-09-20)"
   xmlns:inkscape="http://www.inkscape.org/namespaces/inkscape"
   xmlns:sodipodi="http://sodipodi.sourceforge.net/DTD/sodipodi-0.dtd"
   xmlns="http://www.w3.org/2000/svg"
   xmlns:svg="http://www.w3.org/2000/svg">
  <defs
     id="defs1243" />
  <sodipodi:namedview
     id="namedview1241"
     pagecolor="#505050"
     bordercolor="#ffffff"
     borderopacity="1"
     inkscape:pageshadow="0"
     inkscape:pageopacity="0"
     inkscape:pagecheckerboard="1"
     showgrid="false"
     inkscape:zoom="34.625"
     inkscape:cx="11.98556"
     inkscape:cy="11.98556"
     inkscape:window-width="1920"
     inkscape:window-height="1044"
     inkscape:window-x="0"
     inkscape:window-y="0"
     inkscape:window-maximized="1"
     inkscape:current-layer="svg1239" />
  <title
     id="title1235">GitHub</title>
  <path
     d="M12 .297c-6.63 0-12 5.373-12 12 0 5.303 3.438 9.8 8.205 11.385.6.113.82-.258.82-.577 0-.285-.01-1.04-.015-2.04-3.338.724-4.042-1.61-4.042-1.61C4.422 18.07 3.633 17.7 3.633 17.7c-1.087-.744.084-.729.084-.729 1.205.084 1.838 1.236 1.838 1.236 1.07 1.835 2.809 1.305 3.495.998.108-.776.417-1.305.76-1.605-2.665-.3-5.466-1.332-5.466-5.93 0-1.31.465-2.38 1.235-3.22-.135-.303-.54-1.523.105-3.176 0 0 1.005-.322 3.3 1.23.96-.267 1.98-.399 3-.405 1.02.006 2.04.138 3 .405 2.28-1.552 3.285-1.23 3.285-1.23.645 1.653.24 2.873.12 3.176.765.84 1.23 1.91 1.23 3.22 0 4.61-2.805 5.625-5.475 5.92.42.36.81 1.096.81 2.22 0 1.606-.015 2.896-.015 3.286 0 .315.21.69.825.57C20.565 22.092 24 17.592 24 12.297c0-6.627-5.373-12-12-12"
     id="path1237" />
  <path
     style="fill:#faf8ff;stroke-width:0.0288809"
     d="M 8.1798842,23.653571 C 7.933174,23.584544 7.2367365,23.30105 6.801444,23.092459 5.2120121,22.330808 3.7809005,21.19174 2.6551806,19.792312 2.3141235,19.368331 1.8294263,18.659762 1.5822558,18.223827 0.8567064,16.944172 0.35404644,15.48793 0.1467217,14.064982 -0.01461592,12.957661 -0.01983732,11.697203 0.13248479,10.628159 0.61974449,7.2084168 2.5411328,4.1754709 5.4156332,2.2886142 8.943879,-0.02736913 13.373705,-0.33019832 17.169675,1.4850911 c 0.666836,0.3188908 1.451667,0.7943756 2.02119,1.2245255 0.717784,0.5421281 1.602645,1.4011895 2.162089,2.0990477 1.479778,1.8458997 2.385782,4.1098847 2.588896,6.4693137 0.06647,0.772161 0.03618,1.872014 -0.07396,2.684723 -0.468333,3.45606 -2.506313,6.588783 -5.508178,8.467009 -0.966487,0.604717 -2.410752,1.239106 -2.817385,1.237526 -0.221688,-8.61e-4 -0.383977,-0.07869 -0.486269,-0.233212 l -0.08133,-0.122857 -0.01705,-2.067136 c -0.01482,-1.796467 -0.0234,-2.093607 -0.06556,-2.269302 -0.122277,-0.509594 -0.293325,-0.887704 -0.538604,-1.190605 -0.167302,-0.206605 -0.189047,-0.18414 0.231316,-0.238954 1.118412,-0.145837 2.185905,-0.513102 2.945848,-1.013501 0.364297,-0.239878 0.907918,-0.782894 1.152529,-1.151244 0.557423,-0.839406 0.833332,-1.757578 0.929811,-3.094231 0.104999,-1.454702 -0.223719,-2.6289059 -1.009044,-3.6043832 l -0.19513,-0.2423772 0.04967,-0.1475145 C 18.582526,7.9236488 18.613769,7.6735067 18.61222,7.0613718 18.610952,6.560052 18.600791,6.4233716 18.545928,6.1695419 18.474947,5.8411391 18.321085,5.3350718 18.274862,5.2779783 c -0.04522,-0.055852 -0.514916,-0.044037 -0.80568,0.020268 -0.646587,0.1429964 -1.440329,0.5043864 -2.202713,1.0028927 l -0.285878,0.1869291 -0.233978,-0.05938 C 14.080729,6.2596962 13.371084,6.1547737 12.555957,6.1047939 11.51944,6.0412399 10.273311,6.162508 9.2225444,6.4291879 L 8.9866051,6.4890683 8.8182123,6.3759934 C 7.7492936,5.6582204 6.64163,5.2248731 5.9346634,5.2478729 l -0.2595731,0.00844 -0.095115,0.2743682 C 5.5276627,5.6815884 5.4507448,5.967509 5.4090469,6.166065 c -0.065032,0.3096705 -0.076054,0.4349412 -0.077503,0.8808664 -0.00178,0.5477395 0.036508,0.8365583 0.1612913,1.216675 L 5.5522565,8.4446181 5.3743879,8.6657213 C 4.8115561,9.365362 4.493118,10.116139 4.3718943,11.029288 c -0.055697,0.419555 -0.040399,1.305537 0.031972,1.851578 0.3651925,2.755397 1.9126729,4.221072 4.929844,4.669236 l 0.4239633,0.06297 -0.1147171,0.130326 C 9.3895463,18.031291 9.2241473,18.378693 9.0982966,18.887399 L 9.0198721,19.2044 8.8492864,19.271461 C 8.755464,19.308344 8.5422383,19.372913 8.3754513,19.414946 7.974229,19.516062 7.4136708,19.522027 7.0718946,19.428816 6.4693996,19.264501 5.9611587,18.849233 5.5721675,18.203436 5.3023298,17.755456 4.9182998,17.392739 4.4909747,17.182248 4.1429482,17.010817 3.9210819,16.958003 3.6111882,16.972819 c -0.6206666,0.02967 -0.6089343,0.316173 0.03056,0.746254 0.5847855,0.393287 0.9595734,0.89292 1.3137447,1.751363 0.3384739,0.820395 1.0116366,1.406269 1.8672101,1.625087 0.6018177,0.15392 1.1101984,0.157047 2.0666836,0.01271 l 0.124043,-0.01872 -0.00852,1.113451 -0.00852,1.113452 -0.086643,0.12261 C 8.7557984,23.65689 8.4807287,23.737745 8.1798842,23.653571 Z"
     id="path1431" />
</svg>
