<svg id="Layer_1" data-name="Layer 1" xmlns="http://www.w3.org/2000/svg" viewBox="0 0 192 192"><defs><style>.cls-1{fill:#3f3f3f;}.cls-2{fill:#17172d;}.cls-3{fill:#0e3f36;}.cls-4{fill:#19192d;}.cls-5{fill:#3c3c3d;}.cls-6{fill:#fecb8d;}.cls-7{fill:#281e0b;}.cls-8{fill:#493615;}.cls-9{fill:#34270e;}.cls-10{fill:#30240d;}.cls-11{fill:#281f0c;}.cls-12{fill:#27b199;}.cls-13{fill:#2bc6ab;}.cls-14{fill:#33eaca;}.cls-15{fill:#886727;}.cls-16{fill:#684e1e;}.cls-17{fill:#2ac4a9;}</style></defs><path class="cls-1" d="M309.2,351.92H202c-1.94-1.71-1.84-3.71-.82-5.83a4,4,0,0,1,2.37-1.64c3.16-1.13,2.86-3.73,2.53-6.18-.35-2.73-2.6-2.54-4.58-2.59-2.72-.07-5.44,0-8.15-.1a5.41,5.41,0,0,1-4-1.56,6,6,0,0,1-.26-5.72c2.27-2.07,5.8-2.94,6.36-6.65,2.85-1.2,5.26-2.83,6.07-6.07,2.9-1.1,5.15-2.84,6-6,2.9-1.08,5.2-2.76,6-6,2.73-1.17,5.31-2.5,5.87-5.85a3.08,3.08,0,0,1,.24-.27c1.06-1.31,4-.52,3.86-2.66-.08-1.74-2.7-1.22-3.81-2.35-1.34-1.07-.62-4-2.63-4s-1.29,2.91-2.64,4a8,8,0,0,0-5.86,5.86c-3,1-5.16,2.8-6,6-2.92,1.08-5.14,2.85-6,6a9.05,9.05,0,0,0-6.06,6.05c-3.4.87-4.92,3.68-6.55,6.38a5.94,5.94,0,0,1-5.57.11c-2.06-2.16-2.7-5.79-6.44-6.21-1.53-1-.88-3.91-2.66-4.11-2.22-.24-1.41,2.8-2.78,3.81a6.06,6.06,0,0,1-.94.61c-2.05.83-3.93.8-5.48-1V214c1.52-1.78,3.37-1.86,5.39-1,1.33.45,1.68,1.66,2.13,2.79.3.77.37,1.82,1.49,1.81s1.15-1.07,1.47-1.83a6.1,6.1,0,0,1,1.17-2.26c3.07-1.06,5.53-2.57,4.84-6.46a111.18,111.18,0,0,1-.16-13.41,6.52,6.52,0,0,1,1.18-3.86,5.53,5.53,0,0,1,6-.71c.56.25,1.18.59,1.31,1.18.67,3,2.88,4.28,5.46,5.22,1.21,2.84,2.83,5.27,6.08,6.07,1.09,2.91,2.84,5.16,6,6,1.09,2.91,2.83,5.16,6,6,1.09,2.9,2.74,5.22,6,6a9.61,9.61,0,0,0,6,6.2,2.89,2.89,0,0,1,.61,1.66,9.31,9.31,0,0,1-1,4.62c-2.72,2.16-2.72,2.16.25,5,1,2,2.91,2.1,4.76,2.39,3.82.58,4.8,1.44,4.78,5.29,0,3.35,1.3,7-1.64,9.91-2.42,2.35-5.16,1.87-7.94.94-.26-.24-.52-.48-.77-.74l-1-1,.86.86c3.89,3.83,5.05,3.76,9.33-.51,2.32-1.88,2.22-4.5,2.39-7.14.19-3.13-1-6.51,1.38-9.32a2.67,2.67,0,0,1,2.33-.28c3.33,2.17,1.05,5.81,2.39,8.69.74-.35.5-1.13.57-1.73a10.38,10.38,0,0,0,0-1.85c-.18-3.51.17-6.7,4-8.34,1-.41,1.6-1.52,2.41-2.3a2.57,2.57,0,0,1,3.58-.46l.53.5c.35.34.69.69,1,1l-.81-.82c-1.91-2.75-3.48-1.38-5,.41-3.45,1.4-3.61,1.32-6.75-3.46-1.11-2.1-3.63-1.36-5.18-2.56a8.41,8.41,0,0,0-6-5.94c-1-3-2.81-5.15-6-6-1.08-2.92-2.85-5.14-6-6-1.08-2.91-2.84-5.15-6-6-1.08-2.92-2.86-5.14-6-6a9.11,9.11,0,0,0-6.07-6.08c-.78-3.53-3.9-4.81-6.43-6.66a5.91,5.91,0,0,1,.22-5.87c1.4-1.51,3.28-1.54,5.13-1.58,4.19-.1,8.39-.13,12.58,0,3,.07,5-.89,5.92-3.84.62-1.41,2-1.66,3.25-2.13.58-.23,1.21-.43,1.29-1.14.11-.93-.61-1.21-1.31-1.48-1.24-.47-2.62-.75-3.23-2.19-.83-2-.8-3.94,1-5.49H298c1.78,1.52,1.87,3.37,1.05,5.39-.44,1.33-1.65,1.68-2.79,2.13-.76.3-1.82.37-1.81,1.49s1.08,1.15,1.84,1.47a6.06,6.06,0,0,1,2.25,1.17c1.06,3.07,2.58,5.53,6.47,4.84a111.13,111.13,0,0,1,13.41-.16,6.47,6.47,0,0,1,3.85,1.18,5.49,5.49,0,0,1,.71,6c-.24.56-.59,1.18-1.17,1.31-3,.66-4.29,2.88-5.23,5.46-2.84,1.21-5.27,2.83-6.07,6.08-2.9,1.09-5.16,2.84-6,6-2.91,1.08-5.15,2.84-6,6-2.91,1.08-5.14,2.84-6,6-2.9,1.09-5.16,2.83-6,6-2.84,1.11-5.25,2.65-5.92,5.93-2.32,1.44-5.74,1.89-5.16,5.88.15,2.07-.06,4.21,1.43,5.95a42,42,0,0,1,.44,6.72,3.14,3.14,0,0,0,3.29,3.32c2.37.12,4.74,0,7.11.05,2.86,0,4-1.45,4-4.19,0-4.37-.06-8.74.05-13.11,0-1.72-.21-3.53,1-5a3.12,3.12,0,0,1,2.1-1c2,.48,3.36.3,2-2.28a3.5,3.5,0,0,1,.45-2.73c2.65-1.46,5.36-2.88,6.09-6.24,2.9-1.1,5.16-2.84,6-6,2.92-1.07,5.15-2.85,6-6a9,9,0,0,0,6.07-6.06c3.54-.78,4.82-3.9,6.67-6.44a5.94,5.94,0,0,1,5.87.23c2.18,2.27,1.56,5.15,1.59,7.83.12,8.6.08,8.6,8.61,9.22.62,0,1.25.1,1.87.1,2.08-.05,4.26-.51,5.8,1.5q0,70.44.07,140.9c0,2.56-.49,3.15-3.07,3.07-7.24-.22-14.49-.07-21.74-.07-2-1.89-1.85-4-.57-6.17,1.69-1.69,3.81-1.45,5.9-1.31s4.14-.25,6.22-.28c4.1-.05,4.43-.4,5-4.6a31.22,31.22,0,0,1,0-5.8c-.08-2-.39-4.07.79-5.91,4.8-1.61,5.37-5.33,5-9.68a35.63,35.63,0,0,1,.23-7.72c.84-4.25-3-4.68-5.25-6.38-.87-1.45-1-3.37-3-4.09-3.78-1.4-6.43.3-6.52,4.33-.11,4.36,0,8.72-.07,13.08,0,1.87-.06,3.76-1.56,5.2a6,6,0,0,1-5.75.3c-.58-.27-1.17-.66-1.28-1.27-.55-3.06-2.94-4.09-5.39-5.09-1.2-2.85-2.83-5.27-6.07-6.07-1.1-2.89-2.83-5.16-6-6-1.08-2.9-2.74-5.22-6-6a9.66,9.66,0,0,0-6.06-6.21,2.89,2.89,0,0,1-.61-1.66,9.21,9.21,0,0,1,1-4.64c2.91-2.3,2.91-2.3.07-4.37a4.08,4.08,0,0,0-4.13-2.92,5.16,5.16,0,0,1-4.43-2,2.52,2.52,0,0,1-.2-3.69,5.34,5.34,0,0,1,4.84-2.23,26.2,26.2,0,0,0,4.85-.15c.29,0,.46-.18.57-.68-3.47-.29-6.93-1.1-9.51,2.28-2.48,1.75-2.19,3.45.09,5.13a2.34,2.34,0,0,1,.34,2.64c-2.79,1.28-2.43,4.6-4.21,6.55a2.66,2.66,0,0,1-1.16.45,3,3,0,0,1-2.39-.49c-1.64-1.42-1.3-3.4-1.38-5.22-.2-4.46.23-8.93-.65-13.37.18,7-1.69,14.12.72,21.09,1,2.12,3.56,1.32,5.05,2.54a8.41,8.41,0,0,0,6,5.94c1,2.95,2.81,5.15,6,6,1.08,2.92,2.84,5.14,6,6,1.08,2.92,2.85,5.15,6,6a9.08,9.08,0,0,0,6.06,6.07c.8,3.5,3.82,4.84,6.41,6.61a5.88,5.88,0,0,1-.07,5.72c-1.19,1.57-2.92,1.7-4.67,1.77-2.85.11-5.7,0-8.55.09-1.72.05-3.37.4-3.61,2.43s-.79,4.54,1.73,5.94c1.07.6,2.37.81,3.11,1.95C311.05,348.16,311.16,350.18,309.2,351.92Z" transform="translate(-160 -160)"/><path class="cls-1" d="M160.05,184v-24h24c2.05,1.88,1.86,4,.58,6.17-1.69,1.68-3.81,1.45-5.9,1.31s-4.14.24-6.22.27c-4.11,0-4.43.41-5,4.61a34,34,0,0,1,0,5.88c.07,2.18.45,4.4-1.24,6.22C164.1,185.9,162,186.1,160.05,184Z" transform="translate(-160 -160)"/><path class="cls-1" d="M327.94,160.05c7.37,0,14.74.06,22.11-.05,1.62,0,1.95.31,1.93,1.92-.12,7.37-.05,14.74-.05,22.11-1.89,2-4,1.86-6.17.58-1.69-1.69-1.45-3.81-1.31-5.91s-.25-4.13-.27-6.21c-.06-4.11-.41-4.43-4.61-5a34.08,34.08,0,0,1-5.89,0c-2.17.07-4.4.45-6.22-1.24C326.07,164.1,325.88,162,327.94,160.05Z" transform="translate(-160 -160)"/><path class="cls-1" d="M184,351.92c-7.37,0-14.74-.07-22.11,0-1.61,0-1.94-.31-1.92-1.92.11-7.37.05-14.74.05-22.11,1.88-2,4-1.86,6.17-.58,1.69,1.7,1.45,3.82,1.31,5.91s.24,4.14.27,6.22c.06,4.1.41,4.43,4.61,5a33.1,33.1,0,0,1,5.89,0c2.17-.07,4.39-.44,6.21,1.24C185.9,347.87,186.1,350,184,351.92Z" transform="translate(-160 -160)"/><path class="cls-2" d="M184,166v-6h30v6l-.35.58c-1.74,1.58-3.84.83-5.81.92a35.48,35.48,0,0,1-6,0,64.35,64.35,0,0,1-11.53,0c-2-.12-4.16.67-5.94-.91Z" transform="translate(-160 -160)"/><path class="cls-3" d="M327.94,160.05l0,6-.35.59c-1.78,1.61-3.92.83-5.93.94a64.35,64.35,0,0,1-11.53,0,35.83,35.83,0,0,1-6,0c-2-.09-4.1.67-5.85-.93l-.34-.59,0-6Z" transform="translate(-160 -160)"/><path class="cls-3" d="M160.05,184l6,0,.6.36c1.6,1.77.82,3.92.93,5.92a64.46,64.46,0,0,1,0,11.54,35.71,35.71,0,0,1,0,6c-.09,2,.67,4.11-.93,5.85l-.59.35-6,0Z" transform="translate(-160 -160)"/><path class="cls-3" d="M184,351.92l0-6,.35-.59c1.75-1.6,3.89-.82,5.88-.93,3.83,0,7.75-1.11,11.43.85l.4.56,0,6.08Z" transform="translate(-160 -160)"/><path class="cls-3" d="M166,328l-6,0v-12l6,0,.57.34c1.59,1.69.87,3.75.92,5.69s.67,4-.92,5.69Z" transform="translate(-160 -160)"/><path class="cls-3" d="M346,184l6,0v12c-1.89,2.08-4,1.81-6.23.63-2-1.76-1.22-4.08-1.26-6.23.13-2-.69-4.24.93-6Z" transform="translate(-160 -160)"/><path class="cls-3" d="M327.22,346l0,6h-12c-2.07-1.89-1.81-4-.63-6.24,1.77-2,4.08-1.21,6.24-1.26,2,.14,4.23-.68,6.05.93Z" transform="translate(-160 -160)"/><path class="cls-4" d="M346.05,196.05l5.88,0v6c-1.69,2-3.7,1.81-5.82.85a2.72,2.72,0,0,1-1-1C344.28,199.74,343.62,197.64,346.05,196.05Z" transform="translate(-160 -160)"/><path class="cls-5" d="M345.93,202h6v6l-6.05,0C344,206,343.66,204,345.93,202Z" transform="translate(-160 -160)"/><path class="cls-2" d="M315.18,346c0,2,0,3.92,0,5.88h-6v-6l.39-.59C311.64,344.05,313.58,343.71,315.18,346Z" transform="translate(-160 -160)"/><path class="cls-6" d="M293.59,226c0,7.09-.15,14.18-.08,21.26,0,2-.46,2.88-2.67,2.79-4.35-.16-8.71-.11-13.06,0-1.79,0-2.38-.58-2.34-2.35.08-3.23,0-6.47-.09-9.7,0-3.46,2-2.91,4.1-1.95a8.59,8.59,0,0,1,1.24,1.32,9.86,9.86,0,0,1,.93,3.18c.17,1.55.38,3,2.4,3.14,1.3.08,2.6,0,3-1.56.44-1.81.34-3.5-1.88-4.18-1.67-.57-3.7.19-5.1-1.37a3.36,3.36,0,0,1-1-4.2,2.71,2.71,0,0,1,.78-1c1.69-1.06,3.57-1,5.44-.83,3.94-.55,1.58-3.75,2.36-5.63.5-2.61,2.16-3.33,4.57-2.83C294.33,222.74,294.75,224.08,293.59,226Z" transform="translate(-160 -160)"/><path class="cls-6" d="M187.74,245.45c.81,3.82-.76,5-4.53,4.61a83.55,83.55,0,0,0-10.85,0c-1.88.06-2.64-.43-2.61-2.48q.17-11,0-22.09c0-2,.73-2.54,2.61-2.48a83.55,83.55,0,0,0,10.85,0c3.77-.36,5.34.79,4.53,4.61l-.29.52c-2.16,1.82-4.77,1.1-7.19,1.14-3,.05-4.41,1.3-4.22,4.3,0,.25,0,.5,0,.75-.18,8.78-.19,8.78,8.35,9.58a4.35,4.35,0,0,1,3.08,1.1Z" transform="translate(-160 -160)"/><path class="cls-6" d="M336.27,254.55c0-3.6-.16-7.2,0-10.8.06-2-.43-3.09-2.65-2.77-.61.09-1.26-.08-1.86,0-3.76.69-5.27-.79-4.48-4.56.07-.15.15-.31.22-.47,1.4-1.62,3.56-.72,5.59-1.72-1.91-1.06-4.23-.1-5.59-1.74l-.22-.48c-.78-3.74.68-4.77,4.47-4.64,9,.31,9,.1,9,9.14,0,4.46-.26,9,.09,13.39.29,3.73-.79,5.31-4.59,4.54Z" transform="translate(-160 -160)"/><path class="cls-6" d="M221.51,279.05c0-2.87-.11-5.74,0-8.59.1-2-.62-2.69-2.56-2.51-1.36.13-2.74-.06-4.11,0-1.7.13-2.42-.39-2.42-2.26s.7-2.3,2.41-2.28c6,.08,12,.1,17.94,0,1.93,0,2.22.8,2.23,2.45s-.64,2-2.19,2.12c-6.85.43-6.84.48-6.84,7.47,0,4,0,8,0,11.95,0,1.65.27,3.14-2.34,3.11-2.77,0-2.13-1.78-2.16-3.27C221.48,284.53,221.51,281.79,221.51,279.05Z" transform="translate(-160 -160)"/><path class="cls-6" d="M228.34,254.55c0-3.6-.16-7.2,0-10.8.06-2-.43-3.09-2.65-2.77-.61.09-1.26-.08-1.86,0-3.76.69-5.27-.79-4.48-4.56l.29-.52c1.6-1.55,3.66-.89,5.52-1.13.32-.07.79-.11.84-.44.12-.65-.5-.56-.91-.67-1.86-.23-3.89.41-5.46-1.13-.1-.17-.19-.35-.28-.52.24-1.55-.78-3.3.71-4.66,4-1.84,8.13-1,12.24-.54,2.92,3.56,1.9,7.34.62,11.13,0,4-.37,8,0,11.94.31,3.7-.74,5.35-4.58,4.56Z" transform="translate(-160 -160)"/><path class="cls-6" d="M268.69,232.05c3.75-.79,5,.67,4.62,4.47a86.4,86.4,0,0,0-.05,11.15c.05,1.77-.55,2.41-2.33,2.35a56.62,56.62,0,0,0-8.93,0c-3.8.44-5.24-.87-4.47-4.61l.23-.48c2.11-2,5.05-.55,7.69-1.67-2.61-1.35-5.59.3-7.69-1.79l-.23-.48c-.77-3.73.69-5.24,4.47-4.55.72.13,1.5-.1,2.22,0,3.79.72,5.19-.89,4.56-4.56Z" transform="translate(-160 -160)"/><path class="cls-2" d="M333.21,321.92c0-6.62.1-13.24-.07-19.85-.08-3,.79-4.53,4-4.13a14.73,14.73,0,0,0,1.88,0c6.15,0,6.15,0,6.18,6l-.21.48c-2.79,1.3-5,2.94-4.31,6.56.14,3.78,1,7.62-1,11.21-1.95,1.5-4,1.83-6.1.35Z" transform="translate(-160 -160)"/><path class="cls-2" d="M345.93,202c0,2,0,4-.05,6-2.85,0-5.71-.09-8.55,0-2.64.14-3.48-1-3.42-3.54.11-4.83,0-9.67,0-14.5.12-.19.24-.37.35-.56,1.79-1.44,3.66-1.08,5.56-.28a2.44,2.44,0,0,1,.9.82,6,6,0,0,1,.84,3.56c-.54,3.87.81,6.69,4.32,8.46Z" transform="translate(-160 -160)"/><path class="cls-2" d="M309.2,345.92c-1.88-.29-4.7,1-5.48-1-1.2-3.06-.82-6.58-.16-9.85.31-1.5,2-1.12,3.2-1.13,4.82-.05,9.65,0,14.47,0l.55.35c1.44,1.79,1.08,3.66.29,5.56a2.72,2.72,0,0,1-.82.9,6,6,0,0,1-3.57.84c-3.87-.54-6.7.81-8.45,4.33Z" transform="translate(-160 -160)"/><path class="cls-2" d="M190.05,333.94c4.61,0,9.24.18,13.84-.07,3.4-.19,4.55,1.19,4.14,4.36a14.57,14.57,0,0,0,0,1.87c0,5.93,0,5.93-6,5.74l-.1.07c-1.65-3.9-4.83-4.71-8.64-4.35a6,6,0,0,1-3.19-.76,2.62,2.62,0,0,1-.92-.86c-.85-1.93-1.24-3.83.25-5.65Z" transform="translate(-160 -160)"/><path class="cls-2" d="M214,172.05c0,6,0,6-6.14,6H190l-.57-.37c-1.44-1.89-1.09-3.82-.11-5.77a2.87,2.87,0,0,1,1.07-.85c3.77-1.29,7.64-.64,11.47-.5a34.35,34.35,0,0,1,6,0c2,.08,4.08-.66,5.82.91Z" transform="translate(-160 -160)"/><path class="cls-6" d="M244,232c.14,2.47.72,5.16-3.4,4.63-1.26-.16-1,1.16-1,2,0,2.75,0,5.49,0,8.24,0,1.49.62,3.24-2.16,3.27-2.62,0-2.33-1.46-2.34-3.11,0-3-.07-6-.11-9-1.86-3-1.11-6.28-.72-9.38.26-2.06,2.13-2.06,3.82-1.21.56.17,1.54.13,1.41.86-.72,4.12,1.92,4,4.65,3.81Z" transform="translate(-160 -160)"/><path class="cls-6" d="M279.25,290.58c-2-.11-1.51-1.59-1.51-2.74,0-7.22,0-14.43,0-21.64,0-1.64,0-2.79,2.27-2.79s2.26,1.19,2.26,2.81c0,6.58.06,13.17.1,19.76a3.19,3.19,0,0,1,.48,4.07C281.91,291.45,280.57,291.3,279.25,290.58Z" transform="translate(-160 -160)"/><path class="cls-6" d="M316,236.45c-2.92.4-6.92-1.34-8.51.77-1.45,1.93-.43,5.72-.53,8.69-.05,1.22.16,2.64-.39,3.61s-2.05.47-3.12.37c-1.3-.11-1-1.25-1-2,0-4.48.08-9-.06-13.45-.07-2.09.81-2.53,2.64-2.43a32.75,32.75,0,0,0,6.34,0c3.76-.53,5.31.79,4.5,4.59Z" transform="translate(-160 -160)"/><path class="cls-2" d="M178,190.05,178,208c-1.9,2.11-4,1.86-6.17.52-1.72-1.82-1.33-4.07-1.27-6.25-.06-3.9-.81-7.83.46-11.68a3.23,3.23,0,0,1,.77-1.16c2-1.08,3.93-1.48,5.89,0Z" transform="translate(-160 -160)"/><path class="cls-2" d="M321.93,178l-18,0c-2-1.63-1.79-3.62-.91-5.71a2.68,2.68,0,0,1,.93-1c1.9-1.13,4-.73,6-.7,3.82-.11,7.65-.79,11.41.46a3,3,0,0,1,1.14.78c1.05,2,1.46,3.92-.05,5.87Z" transform="translate(-160 -160)"/><path class="cls-3" d="M351.12,309.93c0,4,.05,7.92.06,11.88,0,6.07,0,6.07-6,6.15l-.59-.36c-1.62-1.82-.79-4-.94-6.06,0-4-1.23-8.21,1.2-12C347.06,308.11,349.17,307.83,351.12,309.93Z" transform="translate(-160 -160)"/><path class="cls-6" d="M208,236.45c.77,3.72-.67,5.29-4.45,4.54s-5.16.88-4.54,4.54l.08-.09c-3.75.79-5.18-.69-4.57-4.47a14.13,14.13,0,0,0,0-4.45c-.61-3.79.83-5.25,4.58-4.47l.46.19a5.16,5.16,0,0,0,4.87,2.63,4,4,0,0,1,3.36,1.12Z" transform="translate(-160 -160)"/><path class="cls-6" d="M300.21,240.9c0,2.25-.08,4.49,0,6.73.09,1.71-.41,2.41-2.27,2.41s-2.31-.72-2.27-2.42c.08-4.48.11-9,0-13.45-.06-2,.85-2.19,2.47-2.21s2.14.67,2.08,2.22C300.14,236.42,300.21,238.66,300.21,240.9Z" transform="translate(-160 -160)"/><path class="cls-6" d="M199.07,232.05c-.75-3.7.64-5.26,4.45-4.57a17.19,17.19,0,0,0,3,0c6.31,0,7.25,1.13,6,7.48-.6,3-3.05.84-4.52,1.47l.09.09c-1.47-1.74-3.2-3-5.61-2.88A4.18,4.18,0,0,1,199,232Z" transform="translate(-160 -160)"/><path class="cls-6" d="M187.74,227.54c3.75-.77,5,.69,4.61,4.49a38.11,38.11,0,0,0,0,8.93c.44,3.8-.86,5.26-4.61,4.49l.08.08a4.37,4.37,0,0,1-1.63-3.16,100.13,100.13,0,0,1,0-11.75,4.37,4.37,0,0,1,1.63-3.16Z" transform="translate(-160 -160)"/><path class="cls-7" d="M345.12,340c.14,6,.14,6-5.62,6-2.1,0-4.19,0-6.29-.06-2-1.63-1.8-3.61-.91-5.71a2.68,2.68,0,0,1,.93-1c1.94-1.14,4-.71,6.12-.69S343.62,337.85,345.12,340Z" transform="translate(-160 -160)"/><path class="cls-6" d="M199,245.53c3.72,0,7.44,0,11.15-.06,1.66-.05,2.46.33,2.44,2.23s-.59,2.41-2.36,2.31a35.48,35.48,0,0,0-6.68,0c-3.82.54-5.22-.89-4.47-4.6Z" transform="translate(-160 -160)"/><path class="cls-6" d="M315.9,236.54c3.71-.76,5.15.64,4.6,4.46a35.48,35.48,0,0,0,0,6.68c.1,1.77-.52,2.35-2.31,2.36s-2.28-.78-2.23-2.44c.09-3.71.05-7.43.06-11.15Z" transform="translate(-160 -160)"/><path class="cls-6" d="M289.05,272.54c-.78-3.68.53-5.18,4.39-4.62a35.48,35.48,0,0,0,6.68,0c1.73-.08,2.39.44,2.39,2.28s-.69,2.31-2.4,2.27c-3.71-.1-7.43,0-11.15,0Z" transform="translate(-160 -160)"/><path class="cls-6" d="M284.52,286a2.44,2.44,0,0,0,.71-.16c1.59-1.86,3.71-1.43,5.76-1.36,2.21.09,4.55-.77,6.56.87.12.19.24.38.37.57-.25,1.55.78,3.3-.71,4.66-4,1.84-8.11,1-12.21.54C282.71,289.61,283,287.86,284.52,286Z" transform="translate(-160 -160)"/><path class="cls-6" d="M268.78,232c-3,0-5.95,0-8.92.06-1.66.06-2.44-.34-2.43-2.23s.59-2.44,2.36-2.31a18.92,18.92,0,0,0,4.45,0c3.81-.63,5.2.89,4.45,4.59Z" transform="translate(-160 -160)"/><path class="cls-6" d="M327.16,254.53l9.11,0-.09-.08c0,4.56,0,4.27-5.61,4.61-4.2.24-3.41-2.25-3.33-4.64Z" transform="translate(-160 -160)"/><path class="cls-6" d="M219.22,254.53l9.12,0-.09-.08c0,4.56,0,4.27-5.61,4.61-4.2.24-3.41-2.25-3.33-4.64Z" transform="translate(-160 -160)"/><path class="cls-6" d="M288.93,277a30.39,30.39,0,0,0,4.48-.09c3.76-.6,5.31.78,4.51,4.58l-.38.57c-2.06,1.62-4.34.86-6.58.58-1.54-.24-2.76-.73-2.12-2.69l.18-3Z" transform="translate(-160 -160)"/><path class="cls-7" d="M196,190c6,0,6,0,6,6l-.34.56c-1.76,1.47-3.63,1.11-5.52.3a2.57,2.57,0,0,1-.95-.9c-.86-1.91-1.23-3.81.25-5.62Z" transform="translate(-160 -160)"/><path class="cls-8" d="M309.94,196c.05-5.93.05-5.93,6-6l.57.33c1.5,1.77,1.13,3.65.33,5.55a2.59,2.59,0,0,1-.9,1c-1.93.86-3.83,1.24-5.64-.26C310.16,196.39,310.05,196.2,309.94,196Z" transform="translate(-160 -160)"/><path class="cls-7" d="M327.94,190c0,6,0,6-6,6l-.56-.33c-1.47-1.76-1.11-3.63-.3-5.53a2.56,2.56,0,0,1,.9-.95c1.91-.85,3.8-1.23,5.61.24Z" transform="translate(-160 -160)"/><path class="cls-8" d="M196,202c-5.93,0-5.93,0-6-6l.37-.6c2.07-1.51,4-1.24,5.69.58l0-.05c1.8,1.73,2.07,3.62.57,5.68Z" transform="translate(-160 -160)"/><path class="cls-7" d="M202,196c6,0,6,0,6,6-.12.19-.24.38-.35.57-1.86,1.48-3.77,1.12-5.7.18a2.71,2.71,0,0,1-.89-1c-.86-2.1-1-4.08.95-5.71Z" transform="translate(-160 -160)"/><path class="cls-8" d="M303.93,202c.07-5.93.07-5.93,6-6l0,0c1.89,1.61,1.79,3.55,1,5.62a2.8,2.8,0,0,1-.85,1.08c-2,1-3.9,1.35-5.79-.16Z" transform="translate(-160 -160)"/><path class="cls-7" d="M321.94,196c0,6,0,6-6,6l-.58-.38A3.76,3.76,0,0,1,316,196l-.05,0c2-2.07,4-2.07,6,0Z" transform="translate(-160 -160)"/><path class="cls-8" d="M202,208c-5.94-.07-5.94-.07-6-6l0,0c2-2,4-2,6,0l-.06,0c1.83,1.73,2.1,3.61.59,5.68Z" transform="translate(-160 -160)"/><path class="cls-7" d="M208,202c6,0,6,0,6,6-.12.19-.24.38-.35.57-1.86,1.47-3.76,1.12-5.69.17a2.56,2.56,0,0,1-.89-1c-.86-2.09-1-4.07.94-5.7Z" transform="translate(-160 -160)"/><path class="cls-8" d="M298,208c0-5.93,0-5.93,6-6l.07.07c1.88,1.61,1.75,3.55.93,5.61a2.77,2.77,0,0,1-.85,1.07c-1.95,1-3.89,1.34-5.78-.16Z" transform="translate(-160 -160)"/><path class="cls-7" d="M315.94,202c0,6,0,6-6,6l-.59-.38c-1.47-2.06-1.23-3.93.63-5.62l0,.06c2-2.1,4-2.07,6,0Z" transform="translate(-160 -160)"/><path class="cls-3" d="M172.2,208l5.78,0c.14,5.95.14,5.95-5.9,6.05l-.54-.28a4,4,0,0,1-.34-5.08A1.93,1.93,0,0,1,172.2,208Z" transform="translate(-160 -160)"/><path class="cls-8" d="M208,214c-5.93-.05-5.93-.05-6-6l.06-.06c2-2,4-2,6,0l0-.05c1.79,1.73,2.07,3.62.56,5.68Z" transform="translate(-160 -160)"/><path class="cls-7" d="M214,208c6,0,6,0,6,6l-.35.58c-1.86,1.47-3.77,1.11-5.7.17a2.71,2.71,0,0,1-.89-1c-.86-2.1-1-4.08,1-5.71Z" transform="translate(-160 -160)"/><path class="cls-8" d="M291.94,214c.07-5.94.07-5.94,6-6l0,0c1.89,1.61,1.79,3.55.95,5.62a2.78,2.78,0,0,1-.84,1.08c-2,1-3.9,1.35-5.8-.16Z" transform="translate(-160 -160)"/><path class="cls-7" d="M310,208c0,6,0,6-6,6l-.59-.39A3.77,3.77,0,0,1,304,208l-.05,0c2-2.08,4-2.08,6,0Z" transform="translate(-160 -160)"/><path class="cls-3" d="M172.08,214.05c0,1.11-.08,2.23-.05,3.35.06,2.26-1.33,2.62-3.17,2.61s-2.84-.67-2.8-2.61c0-1.12,0-2.24-.05-3.35l.09-.09c2-2,3.93-2,5.89,0Z" transform="translate(-160 -160)"/><path class="cls-8" d="M214,220c-5.94-.07-5.94-.07-6-6l0,0c2-2.05,4-2,6,0l-.05,0c1.82,1.73,2.09,3.62.58,5.69Z" transform="translate(-160 -160)"/><path class="cls-7" d="M220,214c6,0,6,0,6,6l-.35.57c-1.85,1.49-3.75,1.12-5.68.18a2.64,2.64,0,0,1-.89-1c-.86-2.09-1-4.07.94-5.7Z" transform="translate(-160 -160)"/><path class="cls-8" d="M286,220c.05-5.93.05-5.93,6-6l.06.06c1.89,1.61,1.76,3.55.94,5.61a2.87,2.87,0,0,1-.85,1.07c-1.95.91-3.89,1.34-5.78-.15Z" transform="translate(-160 -160)"/><path class="cls-7" d="M304,214c0,6,0,6-6,6l-.59-.39c-1.48-2.06-1.23-3.93.63-5.62l0,.06c2-2.1,4-2.07,6,0Z" transform="translate(-160 -160)"/><path class="cls-9" d="M226,220c6,0,6,0,6,6l-.53.44c-2.06.28-4.14.8-6.09-.46-1.32-2.15-1.4-4.17.59-6Z" transform="translate(-160 -160)"/><path class="cls-8" d="M280,226c.07-5.94.07-5.94,6-6l0,0c2,1.88,1.78,4,.56,6.14-2,1.64-4,1.92-6.19.44Z" transform="translate(-160 -160)"/><path class="cls-8" d="M274,232c-.14-6-.14-6,5.91-6.05l.06.06c2.05,2,1.91,4,.07,6L280,232C278,234,276,234.06,274,232Z" transform="translate(-160 -160)"/><path class="cls-8" d="M220,226c-5.94-.05-5.94-.05-6-6l.06-.06c2-2,4-2,6,.05l0-.06c1.79,1.74,2.07,3.62.56,5.68Z" transform="translate(-160 -160)"/><path class="cls-2" d="M214,166c1.1,0,2.2.06,3.29,0,2.13-.08,2.7,1.09,2.7,3s-.57,3.07-2.7,3c-1.09,0-2.19,0-3.29,0l-.05,0c-2-2-2-3.95,0-5.93Z" transform="translate(-160 -160)"/><path class="cls-3" d="M297.92,172.07c-1.11,0-2.23-.07-3.35,0-2.26.06-2.61-1.33-2.61-3.17s.67-2.84,2.61-2.8c1.12,0,2.24,0,3.36-.05l.08.09a3.81,3.81,0,0,1,.51,5.61Z" transform="translate(-160 -160)"/><path class="cls-7" d="M214,292c0-1,.06-2,0-3-.16-2.31,1-3.06,3.15-3s3,.91,2.85,2.95c-.06,1,0,2-.06,3l-.3.58a3.89,3.89,0,0,1-5.31.06C214.24,292.33,214.13,292.15,214,292Z" transform="translate(-160 -160)"/><path class="cls-3" d="M304,172.13l0,5.85c-5.94.13-5.94.13-6.05-5.91L298,172C300.05,170.13,302.06,169.75,304,172.13Z" transform="translate(-160 -160)"/><path class="cls-7" d="M208,298c0-6,0-6,6-6h0c1.89,1.59,1.83,3.53,1,5.61a2.85,2.85,0,0,1-.83,1.08c-1.95,1-3.88,1.36-5.78-.11Z" transform="translate(-160 -160)"/><path class="cls-8" d="M220,291.88c1,0,2,.11,2.93.07,2.1-.1,3.15.7,3.15,3s-.88,3.16-3.06,3c-1-.06-1.95,0-2.93,0l-.6-.37A3.83,3.83,0,0,1,220,292Z" transform="translate(-160 -160)"/><path class="cls-10" d="M291.24,298c-6,0-6,0-6-6l.49-.44c2-.36,4-.64,5.9.23,1.39,1.9,1.64,3.84.22,5.84Z" transform="translate(-160 -160)"/><path class="cls-8" d="M297.24,291.93c5.94.07,5.94.07,6,6l-.33.56c-1.77,1.49-3.65,1.13-5.56.32a2.67,2.67,0,0,1-.95-.91c-.85-1.93-1.23-3.83.27-5.64Z" transform="translate(-160 -160)"/><path class="cls-7" d="M202,304c0-6,0-6,6-6l0,0c1.88,1.6,1.84,3.54,1,5.62a2.76,2.76,0,0,1-.83,1.09c-1.94,1-3.88,1.36-5.78-.12Z" transform="translate(-160 -160)"/><path class="cls-8" d="M220,298c-.08,5.94-.08,5.94-6,6l-.59-.38c-1.51-2.07-1.23-3.95.56-5.68l0,0c2-2,4-2.07,6,0Z" transform="translate(-160 -160)"/><path class="cls-7" d="M297.22,303.94c-6,0-6,0-6-6v0q3-3,6,.05l-.05,0a3.76,3.76,0,0,1,.64,5.59Z" transform="translate(-160 -160)"/><path class="cls-8" d="M303.23,297.94c5.93.05,5.93.05,6,6l-.34.58c-1.85,1.5-3.76,1.15-5.7.21a2.82,2.82,0,0,1-.91-1c-.86-2.09-1-4.07.91-5.71Z" transform="translate(-160 -160)"/><path class="cls-7" d="M196,310c0-6,0-6,6-6h0c1.88,1.59,1.83,3.53,1,5.61a2.85,2.85,0,0,1-.83,1.08c-2,1-3.89,1.37-5.78-.11C196.27,310.34,196.15,310.14,196,310Z" transform="translate(-160 -160)"/><path class="cls-8" d="M214,304c-.05,5.93-.05,5.93-6,6l-.6-.38c-1.52-2.07-1.25-3.95.58-5.68l-.05,0c2-2,4-2,6,0Z" transform="translate(-160 -160)"/><path class="cls-7" d="M303.21,309.94c-6,0-6,0-6-6l0,0c2-2,4-2.06,6,0l0-.05c1.86,1.69,2.11,3.56.63,5.62Z" transform="translate(-160 -160)"/><path class="cls-2" d="M351.12,309.93l-5.8,0-.63-.32c-1.61-2-1.35-3.87.46-5.6l0,0C351.26,304,351.26,304,351.12,309.93Z" transform="translate(-160 -160)"/><path class="cls-3" d="M166,315.91c0-1.22,0-2.44.06-3.67,0-2.05,1.4-2.28,3-2.29s2.92.39,2.93,2.4c0,1.22,0,2.44.06,3.67l-.4.56c-2,1.36-3.9,1.24-5.59-.59Z" transform="translate(-160 -160)"/><path class="cls-7" d="M190,315.94c0-6,0-6,6-6h0c1.88,1.59,1.84,3.53,1,5.61a2.86,2.86,0,0,1-.83,1.09c-2,1-3.89,1.36-5.79-.12Z" transform="translate(-160 -160)"/><path class="cls-8" d="M208.05,310c-.08,5.94-.08,5.94-6,6l-.6-.38c-1.5-2.06-1.22-3.95.57-5.68l0,.05c2-2,4-2.07,6,0Z" transform="translate(-160 -160)"/><path class="cls-7" d="M309.21,315.93c-6,0-6,0-6-6h0c1.59-1.89,3.53-1.83,5.61-1a2.85,2.85,0,0,1,1.08.83c1,1.95,1.37,3.88-.11,5.78Z" transform="translate(-160 -160)"/><path class="cls-8" d="M315.22,309.93c5.93.05,5.93.05,6,6l-.32.57c-1.77,1.5-3.65,1.13-5.56.33a2.64,2.64,0,0,1-.95-.9c-.86-1.93-1.24-3.83.25-5.64Z" transform="translate(-160 -160)"/><path class="cls-7" d="M190,178l0,6c-.11.19-.23.38-.35.57-1.89,1.48-3.82,1.11-5.77.13a2.86,2.86,0,0,1-.86-1.12,5.9,5.9,0,0,1,.75-6.25c2.23-1.3,4.34-1.31,6.24.64Z" transform="translate(-160 -160)"/><path class="cls-8" d="M321.93,184v-6l0,0c1.85-1.93,3.92-1.91,6.13-.71a5.66,5.66,0,0,1,.89,6.17,3.07,3.07,0,0,1-.79,1.18c-2,1.09-3.94,1.46-5.89,0Z" transform="translate(-160 -160)"/><path class="cls-2" d="M172.08,316c5.94-.19,5.94-.19,6,6-.12.18-.25.37-.36.56-1.86,1.44-3.76,1.1-5.69.16a2.77,2.77,0,0,1-.89-1c-.86-2.08-1-4.05.88-5.71Z" transform="translate(-160 -160)"/><path class="cls-7" d="M184,321.94c0-6,0-6,6-6h0c1.88,1.6,1.83,3.53,1,5.61a2.76,2.76,0,0,1-.83,1.09c-1.94,1-3.88,1.36-5.78-.12Z" transform="translate(-160 -160)"/><path class="cls-8" d="M202,316c0,5.93,0,5.93-6,6l-.6-.38c-1.51-2.07-1.24-3.95.59-5.68l-.06,0c2-2,4-2,6,0Z" transform="translate(-160 -160)"/><path class="cls-7" d="M315.2,321.93c-6,0-6,0-6-6v0c2-2,4-2.06,6,0l0-.05c1.87,1.69,2.11,3.56.64,5.62Z" transform="translate(-160 -160)"/><path class="cls-8" d="M321.22,315.91c5.94.08,5.94.08,6,6l-.35.57c-1.84,1.49-3.75,1.14-5.68.21a2.87,2.87,0,0,1-.91-1c-.85-2.08-1-4.06.89-5.7Z" transform="translate(-160 -160)"/><path class="cls-7" d="M178.05,322l6,0h0c2,1.71,1.83,3.72.83,5.86a2.75,2.75,0,0,1-1.05,1,5.86,5.86,0,0,1-6.38-.58c-1.39-2.24-1.37-4.35.58-6.28Z" transform="translate(-160 -160)"/><path class="cls-8" d="M196.05,322c-.07,5.94-.07,5.94-6,6l-.6-.38c-1.51-2.06-1.23-3.95.57-5.68l0,.05c2-2,4-2.07,6,0Z" transform="translate(-160 -160)"/><path class="cls-7" d="M321.2,327.93c-6,0-6,0-6-6h0c2-2,4-2,6,0l-.06,0q2.84,2.51.64,5.6Z" transform="translate(-160 -160)"/><path class="cls-8" d="M309.23,303.92c5.94.08,5.94.08,6,6l0,0c-2,2-4,2-6,0l0,0c-2-2-2.07-4,0-6Z" transform="translate(-160 -160)"/><path class="cls-8" d="M190.05,328v6l0,0c-2,1.94-4.14,2-6.39.42-1.36-2.23-1.73-4.4.33-6.45l.09-.05c2-2,4-2,6,0Z" transform="translate(-160 -160)"/><path class="cls-7" d="M321.23,333.92l0-6h0c1.71-2,3.72-1.83,5.86-.83a2.75,2.75,0,0,1,1,1.05,5.84,5.84,0,0,1-.58,6.37c-2.24,1.4-4.35,1.38-6.28-.57Z" transform="translate(-160 -160)"/><path class="cls-3" d="M345.21,328l-.06,6c-2,2.13-4.13,1.87-6.33.32-1.45-2.19-1.74-4.4-.15-6.66,2.23-1.42,4.4-1.83,6.46.3Z" transform="translate(-160 -160)"/><path class="cls-8" d="M184,190.05h-6l0,0c-1.95-2-2-4.15-.42-6.39,2.22-1.36,4.4-1.73,6.45.33l.05.09a3.85,3.85,0,0,1,.53,5.63Z" transform="translate(-160 -160)"/><path class="cls-7" d="M190,184c6,0,6,0,6,6h0c-1.68,2-3.68,1.81-5.8.86a2.6,2.6,0,0,1-1-1c-1-2.14-1.16-4.17.83-5.89Z" transform="translate(-160 -160)"/><path class="cls-8" d="M315.92,190c.08-5.93.08-5.93,6-6l0,0c2.05,2,2,4,0,6l0,0c-2,2-4,2.07-6,0Z" transform="translate(-160 -160)"/><path class="cls-8" d="M339.25,333.78l5.9.14,0,6-6-.1a4,4,0,0,1-.84-5.27A2.16,2.16,0,0,1,339.25,333.78Z" transform="translate(-160 -160)"/><path class="cls-7" d="M333.93,190l-6,0v0c-2-2-2.07-4,0-6l.09,0c2-2.2,4.14-1.74,6.36-.41,1.63,2.25,1.52,4.39-.42,6.4Z" transform="translate(-160 -160)"/><path class="cls-3" d="M333.07,340c.05,2,.09,3.92.14,5.87l-6,.09-.08-.08c-2.11-2-1.71-4.17-.38-6.38C329,338,331.14,337.67,333.07,340Z" transform="translate(-160 -160)"/><path class="cls-8" d="M190,196.05c-5.94-.07-5.94-.07-6-6l0,0c2-2,4-2,6,0l-.06,0c2,2,2.08,4,0,6Z" transform="translate(-160 -160)"/><path class="cls-8" d="M327.21,321.92h6l0,0c1.94,2,2,4.15.42,6.4-2.23,1.35-4.4,1.72-6.45-.33l-.05-.1c-2-2-2-4,0-6Z" transform="translate(-160 -160)"/><path class="cls-7" d="M238,227.38c-2.37-.26-3.23.71-3,3.14s0,5-.07,7.45h-2c-.65-3.52.76-7.21-.83-10.66a.76.76,0,0,1,0-1.28h0C234,226.48,236.47,224.86,238,227.38Z" transform="translate(-160 -160)"/><path class="cls-8" d="M288.84,280c0,1.74,1.34,1.43,2.37,1.62,1.45,1.42,1.45,2.83,0,4.25h-6C285.59,283.36,283.75,279.53,288.84,280Z" transform="translate(-160 -160)"/><path class="cls-7" d="M274,232l5.92,0,.12,4.37.11-.11c-1.44,1.07-4.1-1.34-4.84,1.7C272.84,236.45,274.42,234,274,232Z" transform="translate(-160 -160)"/><path class="cls-7" d="M293.59,226c-.49-1,.73-3-1.58-3.09a1.92,1.92,0,0,1,0-2.87l-.05,0c2-2.08,4-2.08,6,0h0l0,2.87c-.12,1.54-.7,2.73-2.35,3.1Z" transform="translate(-160 -160)"/><path class="cls-6" d="M219.31,236.45c-1.58-.6-4.56,1.8-4.56-2.2s3-1.6,4.56-2.21l-.09-.08a2.93,2.93,0,0,1,0,4.58Z" transform="translate(-160 -160)"/><path class="cls-6" d="M244,232.05c.6-1.52-1.63-4.2,1.83-4.54,4.17-.4,2.15,2.77,2.58,4.53l.08-.09H244Z" transform="translate(-160 -160)"/><path class="cls-6" d="M257.53,245.45c-1.57-.61-4.55,1.79-4.55-2.21s3-1.6,4.55-2.21l-.08-.08a2.93,2.93,0,0,1,0,4.58Z" transform="translate(-160 -160)"/><path class="cls-6" d="M289,276.93c-1.52-.61-4.24,1.64-4.54-1.86-.35-4.17,2.8-2.13,4.57-2.53l-.09-.08,0,4.56Z" transform="translate(-160 -160)"/><path class="cls-6" d="M297.92,281.51c1.57.6,4.55-1.79,4.55,2.2s-3,1.6-4.55,2.21l.08.08a2.93,2.93,0,0,1,0-4.58Z" transform="translate(-160 -160)"/><path class="cls-6" d="M219.31,254.44c-1.57-.61-4.51,1.8-4.58-2.18,0-1.77.54-2.34,2.31-2.31,4,.07,1.57,3,2.18,4.58Z" transform="translate(-160 -160)"/><path class="cls-6" d="M327.24,254.44c-1.56-.61-4.51,1.8-4.58-2.18,0-1.77.54-2.34,2.31-2.31,4,.07,1.57,3,2.19,4.58Z" transform="translate(-160 -160)"/><path class="cls-6" d="M295.59,226c.12-1.53-.2-3.4,2.35-3.1,1.25.09,2.6.1,2.26,2-.18,1,.63,2.54-1.16,2.56C297.8,227.44,295.89,228.44,295.59,226Z" transform="translate(-160 -160)"/><path class="cls-6" d="M248.45,232c1.56.62,4.5-1.8,4.57,2.18,0,1.77-.53,2.34-2.31,2.31-4-.07-1.56-3-2.18-4.58Z" transform="translate(-160 -160)"/><path class="cls-6" d="M327.24,236.45c-1.58-.6-4.56,1.8-4.56-2.2s3-1.6,4.56-2.21l-.09-.08a2.92,2.92,0,0,1,0,4.58Z" transform="translate(-160 -160)"/><path class="cls-11" d="M284.52,286c.23,1.54-.76,3.25.67,4.61a.82.82,0,0,1,0,1.34h0c-2-.46-4.46,1.16-6-1.36,4.15.57,2.62-2.69,3.09-4.6Z" transform="translate(-160 -160)"/><path class="cls-8" d="M232,226l0,1.28-12,.07c0-.45,0-.91,0-1.36l0,0c2.07-2.15,4.15-1.85,6.22,0Z" transform="translate(-160 -160)"/><path class="cls-8" d="M285.21,292c0-.45,0-.89,0-1.34l12,0,0,1.35-.06.06c-2,2-4,2-6,0Z" transform="translate(-160 -160)"/><path class="cls-7" d="M166.1,172c-.13-6-.13-6,5.64-6,2.09,0,4.19,0,6.29.07,2,1.63,1.78,3.61.89,5.7a2.61,2.61,0,0,1-.93,1c-1.94,1.14-4.05.71-6.12.69S167.61,174.11,166.1,172Z" transform="translate(-160 -160)"/><path class="cls-2" d="M178.15,172l-.12-5.86,6-.08,0,0c2.13,2,1.75,4.17.41,6.4C182.24,174,180.09,174.29,178.15,172Z" transform="translate(-160 -160)"/><path class="cls-8" d="M166.1,172l6,.1c1.91,1.7,1.69,3.68.76,5.76a2.57,2.57,0,0,1-1,1c-2.12,1-4.14,1.17-5.84-.84Z" transform="translate(-160 -160)"/><path class="cls-3" d="M166.07,178l5.91.15c2.31,1.91,2,4,.51,6.26-2.21,1.34-4.38,1.76-6.39-.37L166,184Z" transform="translate(-160 -160)"/><path class="cls-7" d="M340,166.1c6-.13,6-.13,6,5.63,0,2.09,0,4.19-.05,6.29-1.64,2-3.62,1.79-5.72.91a2.68,2.68,0,0,1-1-.93c-1.14-1.94-.71-4.06-.69-6.13S337.87,167.61,340,166.1Z" transform="translate(-160 -160)"/><path class="cls-3" d="M328,166l6,.06c2.13,2,1.87,4.14.32,6.33-2.19,1.46-4.4,1.74-6.66.16-1.42-2.23-1.83-4.41.3-6.46Z" transform="translate(-160 -160)"/><path class="cls-8" d="M333.79,172q.07-3,.14-5.91l6,0-.09,6a4,4,0,0,1-5.28.83A2.08,2.08,0,0,1,333.79,172Z" transform="translate(-160 -160)"/><path class="cls-3" d="M340,178.15l5.88-.13c0,2,.05,4,.08,6l-.08.08c-2,2.12-4.16,1.72-6.38.38C338,182.23,337.68,180.08,340,178.15Z" transform="translate(-160 -160)"/><path class="cls-7" d="M172,345.86c-6,.13-6,.13-6-5.62,0-2.1,0-4.2,0-6.29,1.63-2,3.62-1.8,5.71-.91a2.64,2.64,0,0,1,1,.93c1.14,1.94.71,4,.69,6.12S174.11,344.36,172,345.86Z" transform="translate(-160 -160)"/><path class="cls-3" d="M172,333.81l-5.87.14-.09-6,.09-.08c2-2.11,4.16-1.71,6.38-.38C174,329.74,174.3,331.88,172,333.81Z" transform="translate(-160 -160)"/><path class="cls-8" d="M172,345.86l.1-6c1.7-1.91,3.68-1.7,5.76-.77a2.67,2.67,0,0,1,1,1c1,2.12,1.17,4.13-.84,5.83Z" transform="translate(-160 -160)"/><path class="cls-3" d="M178,345.89l.15-5.9c1.91-2.32,4-2,6.27-.52,1.33,2.22,1.75,4.38-.38,6.4L184,346Z" transform="translate(-160 -160)"/><path class="cls-12" d="M202,171.92l-12,.17c-2.26-2-2-3.93-.06-5.92h12C204.07,168.09,204.07,170,202,171.92Z" transform="translate(-160 -160)"/><path class="cls-13" d="M190,166.17l.06,5.92h0c-2.05,1.81-4.1,2.31-6.12-.06l.1-6Z" transform="translate(-160 -160)"/><path class="cls-13" d="M202,171.92v-5.75h6c2,1.92,2,3.83,0,5.75Z" transform="translate(-160 -160)"/><path class="cls-14" d="M208.05,171.92v-5.75l5.93-.09V172Z" transform="translate(-160 -160)"/><path class="cls-12" d="M321.91,172.09l-12-.17c-2-1.92-2-3.83,0-5.75h12C323.92,168.16,324.17,170.14,321.91,172.09Z" transform="translate(-160 -160)"/><path class="cls-14" d="M304,172.13l-6-.14V166.1l5.91.07c2.1,1.93,2.07,3.85,0,5.78Z" transform="translate(-160 -160)"/><path class="cls-13" d="M303.91,172c0-1.93,0-3.86,0-5.78h6v5.75Z" transform="translate(-160 -160)"/><path class="cls-13" d="M321.91,172.09l.06-5.92,5.92-.07L328,172c-2,2.37-4.06,1.87-6.12.06Z" transform="translate(-160 -160)"/><path class="cls-12" d="M172.09,190.07l-.17,12c-1.92,2-3.83,2-5.75,0V190C168.16,188.05,170.14,187.8,172.09,190.07Z" transform="translate(-160 -160)"/><path class="cls-13" d="M166.17,202h5.75l.28,6-.31,0c-1.88,2.1-3.79,2.06-5.72.06Z" transform="translate(-160 -160)"/><path class="cls-14" d="M166.17,208.05l5.72-.06.1,6H166.1Z" transform="translate(-160 -160)"/><path class="cls-13" d="M172.09,190.07l-5.92-.06-.07-5.93L172,184c2.37,2,1.87,4.07.06,6.12Z" transform="translate(-160 -160)"/><path class="cls-12" d="M190.07,339.87a74,74,0,0,0,7.74,0c3.32-.33,4.82.75,4.22,4.19a14.18,14.18,0,0,0-.06,1.85l-12-.11C188.05,343.8,187.81,341.82,190.07,339.87Z" transform="translate(-160 -160)"/><path class="cls-13" d="M190.07,339.87,190,345.8l-5.93.07-.12-5.93c2-2.36,4.07-1.87,6.12-.05Z" transform="translate(-160 -160)"/><path class="cls-12" d="M172,316l.1,5.95c-2,2.26-3.93,2-5.92.06,0-2,0-4-.08-6Z" transform="translate(-160 -160)"/><path class="cls-13" d="M166.17,322l5.92-.06v0c1.82,2.06,2.31,4.1-.06,6.12l-5.92-.12Z" transform="translate(-160 -160)"/><path class="cls-12" d="M345.9,202c-6,.06-6,.06-6-6,0-2,0-3.93,0-5.89,1.95-2.27,3.92-2,5.92-.06l.24,6Z" transform="translate(-160 -160)"/><path class="cls-13" d="M345.81,190l-5.92.06h0c-1.82-2.05-2.31-4.1.05-6.12l5.93.12Z" transform="translate(-160 -160)"/><path class="cls-12" d="M309.23,345.9c-.06-6-.06-6,6-6,2,0,3.93,0,5.9-.05,2.26,1.95,2,3.93.06,5.93l-6,.24Z" transform="translate(-160 -160)"/><path class="cls-13" d="M321.22,345.8l-.06-5.93,0,0c2.06-1.82,4.1-2.31,6.12.05l-.12,5.93Z" transform="translate(-160 -160)"/><path class="cls-1" d="M286,236.62c2-.41,3.46-.1,3,2.49,0,.24,0,.5,0,.74-.22,1.8.91,4.56-.57,5.19-2.1.9-4.82.39-7.27.39-1.29,0-1.14-1.07-1.13-1.9,0-1.85.07-3.71.11-5.56C281.79,236.41,284.22,238,286,236.62Z" transform="translate(-160 -160)"/><path class="cls-15" d="M280.08,232.08c0-2-.05-4-.07-6H286l.59.35c1.41,2,1.29,3.82-.52,5.49Z" transform="translate(-160 -160)"/><path class="cls-16" d="M292,220v2.87q-3.57-.4-3.16,3.15a2,2,0,0,1-2.92,0l0,.05q0-3,0-6Z" transform="translate(-160 -160)"/><path class="cls-7" d="M285.93,226l2.92,0a28.35,28.35,0,0,0,.14,3.33c.4,2.55-.89,3-3,2.52Z" transform="translate(-160 -160)"/><path class="cls-7" d="M286,236.62c-1.48,2.51-3.9.91-5.85,1.35,0-.56,0-1.13.08-1.7,0,0-.11.12-.1.12Z" transform="translate(-160 -160)"/><path class="cls-1" d="M187.82,227.46v18.07c-3.73,0-7.46-.1-11.19,0-1.74,0-2.41-.49-2.37-2.31q.15-6.71,0-13.43c0-1.82.63-2.35,2.37-2.31C180.36,227.56,184.09,227.48,187.82,227.46Z" transform="translate(-160 -160)"/><path class="cls-1" d="M327.15,236.54V232c2.23,0,4.47.11,6.69,0,1.72-.07,2.4.43,2.4,2.28s-.68,2.35-2.4,2.27C331.62,236.42,329.38,236.52,327.15,236.54Z" transform="translate(-160 -160)"/><path class="cls-1" d="M219.22,236.54V232l6.79.16q2.18,2.13,0,4.25Z" transform="translate(-160 -160)"/><path class="cls-8" d="M226,236.37v-4.25c1.93-.53,2.29.41,2.29,2.13S227.94,236.91,226,236.37Z" transform="translate(-160 -160)"/><path class="cls-1" d="M257.45,245.53V241c3,0,6,.11,8.93,0,1.71-.06,2.41.42,2.41,2.27s-.7,2.33-2.41,2.28C263.41,245.43,260.42,245.52,257.45,245.53Z" transform="translate(-160 -160)"/><path class="cls-12" d="M333.17,327.86l.06-5.91,5.88-.09.62.38c1.56,2.08,1.26,4-.53,5.76,0,1.93,0,3.85.05,5.78L339,334c-1.68,2-3.66,1.7-5.74.76a2.71,2.71,0,0,1-1-1C331.35,331.6,331.28,329.59,333.17,327.86Z" transform="translate(-160 -160)"/><path class="cls-12" d="M345.32,309.9q-.13,6-.26,12.06c-1.86,2-3.77,2-5.72.13l-.23-.23.2-11.93c1.94-2.05,3.86-2,5.77,0Z" transform="translate(-160 -160)"/><path class="cls-17" d="M345.08,310l-5.77,0c-.25-7.52-.67-5.8,5.84-5.95Q345.12,307,345.08,310Z" transform="translate(-160 -160)"/><path class="cls-12" d="M340,184l-.05,6.12L334,190c0-2,0-3.94-.05-5.91-1.86-1.7-1.82-3.68-.89-5.81a2.72,2.72,0,0,1,1-1c2.1-1,4.12-1.28,5.84.73l.18.16C340,180.09,340,182,340,184Z" transform="translate(-160 -160)"/><path class="cls-12" d="M327.26,339.94l-6.12-.05.06-5.93,5.92,0c1.95-1.91,3.93-2.09,5.95-.1l.19.19c1.94,1.94,2,3.88,0,5.81l-.17.18Z" transform="translate(-160 -160)"/><path class="cls-12" d="M190.08,339.89l-6.12.05-5.77.05-.21-.21c-2-1.68-1.7-3.67-.76-5.74a2.64,2.64,0,0,1,1-1c2.14-1,4.15-1.05,5.88.85l5.9.06Q190.06,336.92,190.08,339.89Z" transform="translate(-160 -160)"/><path class="cls-12" d="M184,172l6.12.06c0,2,0,3.95-.05,5.93l-5.92.05c-1.7,1.85-3.68,1.82-5.8.89a2.75,2.75,0,0,1-1.05-.95c-1-2.1-1.29-4.11.75-5.83l.14-.19Z" transform="translate(-160 -160)"/><path class="cls-12" d="M172.08,190.08,172,184c0-1.92,0-3.85,0-5.77l.21-.21c1.92-2,3.85-1.93,5.78,0l.19.19c2,2,1.81,4-.1,6L178,190Z" transform="translate(-160 -160)"/><path class="cls-12" d="M321.89,172.08,328,172l5.78,0,.21.21c2,1.92,1.93,3.85,0,5.78l-.19.19c-2,2-4,1.81-5.95-.1L322,178C321.94,176,321.92,174.05,321.89,172.08Z" transform="translate(-160 -160)"/><path class="cls-13" d="M339.34,322.09l5.72-.13.07,5.92-5.93.12C339.25,326,339.29,324.06,339.34,322.09Z" transform="translate(-160 -160)"/><path class="cls-1" d="M199,232a26.81,26.81,0,0,0,4.48,0c3.78-.62,5.27.84,4.6,4.58a25.78,25.78,0,0,0-4.48,0C199.8,237.16,198.32,235.69,199,232Z" transform="translate(-160 -160)"/><path class="cls-15" d="M333.24,339.81c0-1.94,0-3.87,0-5.81H339l.06,5.86Z" transform="translate(-160 -160)"/><path class="cls-1" d="M298,281.42V286l-6.79-.16v-4.25Z" transform="translate(-160 -160)"/><path class="cls-16" d="M202.07,202h-6v-6l6,0C202,198,202.06,200,202.07,202Z" transform="translate(-160 -160)"/><path class="cls-15" d="M190.07,196c0-2,0-4,0-6l6,0q0,3,0,6Z" transform="translate(-160 -160)"/><path class="cls-15" d="M316,190.07l6,0q0,3,0,6l-6,0C316,194.07,316,192.07,316,190.07Z" transform="translate(-160 -160)"/><path class="cls-16" d="M316,202l-6,0v-6h6Z" transform="translate(-160 -160)"/><path class="cls-16" d="M327.94,184.07c0,2,0,4,0,6l-6,0v-6Z" transform="translate(-160 -160)"/><path class="cls-15" d="M208.06,208l-6,0c0-2,0-4,0-6l6,0C208,204,208.05,206,208.06,208Z" transform="translate(-160 -160)"/><path class="cls-15" d="M310,208l-6,0q0-3,.05-6l6-.05Z" transform="translate(-160 -160)"/><path class="cls-16" d="M214.06,214h-6v-6l6,0Q214.05,211,214.06,214Z" transform="translate(-160 -160)"/><path class="cls-16" d="M304,214l-6,0v-6h6Z" transform="translate(-160 -160)"/><path class="cls-15" d="M220.05,220l-6-.05c0-2,0-4,0-6l6,0Z" transform="translate(-160 -160)"/><path class="cls-15" d="M298,220l-6,0c0-2,0-4,0-6l6-.05Q298,217,298,220Z" transform="translate(-160 -160)"/><path class="cls-16" d="M226.25,226H220v-6l6,.06Q226.12,223,226.25,226Z" transform="translate(-160 -160)"/><path class="cls-15" d="M220,297.91l-6,0,0-6h6Z" transform="translate(-160 -160)"/><path class="cls-16" d="M214,303.93h-6l0-6,6,0Z" transform="translate(-160 -160)"/><path class="cls-15" d="M291.17,292l6,0c0,2,0,4,0,6l-6-.05Z" transform="translate(-160 -160)"/><path class="cls-16" d="M303.19,304l-6,0,0-6h6Z" transform="translate(-160 -160)"/><path class="cls-15" d="M208,309.91l-6,0q0-3,0-6l6,0C208,305.91,208,307.91,208,309.91Z" transform="translate(-160 -160)"/><path class="cls-15" d="M309.17,304c0,2,0,4,0,6l-6,0q0-3,0-6Z" transform="translate(-160 -160)"/><path class="cls-16" d="M202,315.92h-6c0-2,0-4,0-6l6,0Z" transform="translate(-160 -160)"/><path class="cls-15" d="M196,321.9l-6,0c0-2,0-4,0-6l6,0Q196,318.9,196,321.9Z" transform="translate(-160 -160)"/><path class="cls-16" d="M309.16,310h6c0,2,0,4,0,6l-6,0C309.18,314,309.17,312,309.16,310Z" transform="translate(-160 -160)"/><path class="cls-15" d="M321.21,322l-6,0c0-2,0-4,0-6l6,.05C321.18,318,321.19,320,321.21,322Z" transform="translate(-160 -160)"/><path class="cls-13" d="M178.06,184.11c0-2,.07-4,.1-6l6-.1c0,2-.05,3.93-.08,5.89Z" transform="translate(-160 -160)"/><path class="cls-16" d="M190.08,190h-6l0-6,6,0Q190.06,187,190.08,190Z" transform="translate(-160 -160)"/><path class="cls-13" d="M327.87,178.06l5.95.1c0,2,.06,4,.1,6L328,184Q327.94,181,327.87,178.06Z" transform="translate(-160 -160)"/><path class="cls-12" d="M172,328l.06-6.12,5.93.06c0,2,0,3.95.05,5.92,1.91,1.95,2.09,3.93.1,5.95L178,334c-1.95,1.94-3.88,2-5.81,0l-.19-.17C172,331.88,172,329.94,172,328Z" transform="translate(-160 -160)"/><path class="cls-16" d="M190,327.92l-6,0c0-2,0-4,0-6l6,0C190,323.9,190,325.91,190,327.92Z" transform="translate(-160 -160)"/><path class="cls-16" d="M327.18,322l0,6-6,0c0-2,0-4,0-6Z" transform="translate(-160 -160)"/><path class="cls-13" d="M178.16,333.81l-.1-5.95,5.89.08c.05,2,.11,4,.16,6Z" transform="translate(-160 -160)"/><path class="cls-13" d="M333.07,333.81l-5.95.1c0-2,.05-3.93.08-5.9l6-.15Q333.11,330.83,333.07,333.81Z" transform="translate(-160 -160)"/><path class="cls-15" d="M178,178h-5.78l-.06-5.87,5.88.06C178,174.1,178,176,178,178Z" transform="translate(-160 -160)"/><path class="cls-15" d="M334,178c0-1.93,0-3.86,0-5.78l5.87-.06c0,2,0,3.9-.05,5.86Z" transform="translate(-160 -160)"/><path class="cls-15" d="M172.16,334l5.81,0c0,1.92,0,3.85,0,5.78l-5.87.06C172.13,337.88,172.14,335.93,172.16,334Z" transform="translate(-160 -160)"/><polygon class="cls-6" points="78.18 112.48 78.18 125.93 81.88 126.05 81.96 112.61 78.18 112.48"/><polygon class="cls-6" points="81.96 112.61 90.99 112.64 90.99 107.91 81.96 107.9 81.96 112.61"/><polygon class="cls-6" points="81.96 130.46 90.99 130.48 90.99 125.75 81.96 125.75 81.96 130.46"/><polygon class="cls-6" points="90.63 112.39 90.63 125.84 94.33 125.96 94.41 112.52 90.63 112.39"/><polygon class="cls-6" points="97.24 112.55 97.24 126 100.94 126.12 101.02 112.68 97.24 112.55"/><polygon class="cls-6" points="101.02 112.68 110.05 112.71 110.05 107.98 101.02 107.97 101.02 112.68"/><polygon class="cls-6" points="101.02 130.53 110.05 130.56 110.05 125.83 101.02 125.82 101.02 130.53"/><polygon class="cls-6" points="109.68 112.46 109.68 125.91 113.38 126.03 113.46 112.59 109.68 112.46"/></svg>