<?xml version="1.0" encoding="UTF-8" standalone="no"?>
<svg
   role="img"
   viewBox="0 0 24 24"
   version="1.1"
   id="svg69"
   sodipodi:docname="twitch.svg"
   inkscape:version="1.1.1 (3bf5ae0d25, 2021-09-20)"
   xmlns:inkscape="http://www.inkscape.org/namespaces/inkscape"
   xmlns:sodipodi="http://sodipodi.sourceforge.net/DTD/sodipodi-0.dtd"
   xmlns="http://www.w3.org/2000/svg"
   xmlns:svg="http://www.w3.org/2000/svg">
  <defs
     id="defs73" />
  <sodipodi:namedview
     id="namedview71"
     pagecolor="#505050"
     bordercolor="#ffffff"
     borderopacity="1"
     inkscape:pageshadow="0"
     inkscape:pageopacity="0"
     inkscape:pagecheckerboard="1"
     showgrid="false"
     inkscape:zoom="34.75"
     inkscape:cx="6.1870504"
     inkscape:cy="12"
     inkscape:window-width="1920"
     inkscape:window-height="1044"
     inkscape:window-x="0"
     inkscape:window-y="0"
     inkscape:window-maximized="1"
     inkscape:current-layer="svg69" />
  <title
     id="title65">Twitch</title>
  <path
     d="M11.571 4.714h1.715v5.143H11.57zm4.715 0H18v5.143h-1.714zM6 0L1.714 4.286v15.428h5.143V24l4.286-4.286h3.428L22.286 12V0zm14.571 11.143l-3.428 3.428h-3.429l-3 3v-3H6.857V1.714h13.714Z"
     id="path67" />
  <path
     style="fill:#faf8ff;stroke:none;stroke-width:0.028777;fill-opacity:1"
     d="M 6.8776978,21.820071 V 19.697842 H 4.3021583 1.7266187 V 11.992733 4.287625 L 3.8633813,2.1510067 6.0001439,0.01438849 h 8.1366191 8.136618 V 6.0072345 12.000081 l -3.848961,3.84888 -3.848961,3.848881 H 12.848953 11.122447 L 9.0000725,21.820071 6.8776978,23.9423 Z M 12.244604,16.071942 13.7408,14.57554 h 1.712244 1.712244 l 1.705126,-1.704946 1.705126,-1.704945 V 6.4389396 1.7122302 H 13.71223 6.8489209 V 8.1438849 14.57554 h 1.9280575 1.9280576 v 1.496402 c 0,0.823022 0.0098,1.496403 0.02169,1.496403 0.01193,0 0.694974,-0.673381 1.517881,-1.496403 z"
     id="path192" />
  <path
     style="fill:#faf8ff;fill-opacity:1;stroke-width:0.028777"
     d="M 16.28777,7.294964 V 4.7338129 h 0.848921 0.848921 V 7.294964 9.8561151 H 17.136691 16.28777 Z"
     id="path1083" />
  <path
     style="fill:#faf8ff;fill-opacity:1;stroke-width:0.028777"
     d="M 11.597122,7.294964 V 4.7338129 h 0.834533 0.834532 V 7.294964 9.8561151 h -0.834532 -0.834533 z"
     id="path1122" />
</svg>
