<?xml version="1.0" encoding="UTF-8" standalone="no"?>
<svg
   role="img"
   viewBox="0 0 24 24"
   version="1.1"
   id="svg1249"
   sodipodi:docname="youtube.svg"
   inkscape:version="1.1.1 (3bf5ae0d25, 2021-09-20)"
   xmlns:inkscape="http://www.inkscape.org/namespaces/inkscape"
   xmlns:sodipodi="http://sodipodi.sourceforge.net/DTD/sodipodi-0.dtd"
   xmlns="http://www.w3.org/2000/svg"
   xmlns:svg="http://www.w3.org/2000/svg">
  <defs
     id="defs1253" />
  <sodipodi:namedview
     id="namedview1251"
     pagecolor="#505050"
     bordercolor="#ffffff"
     borderopacity="1"
     inkscape:pageshadow="0"
     inkscape:pageopacity="0"
     inkscape:pagecheckerboard="1"
     showgrid="false"
     inkscape:zoom="34.625"
     inkscape:cx="6.1516245"
     inkscape:cy="11.98556"
     inkscape:window-width="1920"
     inkscape:window-height="1044"
     inkscape:window-x="0"
     inkscape:window-y="0"
     inkscape:window-maximized="1"
     inkscape:current-layer="svg1249" />
  <title
     id="title1245">YouTube</title>
  <path
     d="M23.498 6.186a3.016 3.016 0 0 0-2.122-2.136C19.505 3.545 12 3.545 12 3.545s-7.505 0-9.377.505A3.017 3.017 0 0 0 .502 6.186C0 8.07 0 12 0 12s0 3.93.502 5.814a3.016 3.016 0 0 0 2.122 2.136c1.871.505 9.376.505 9.376.505s7.505 0 9.377-.505a3.015 3.015 0 0 0 2.122-2.136C24 15.93 24 12 24 12s0-3.93-.502-5.814zM9.545 15.568V8.432L15.818 12l-6.273 3.568z"
     id="path1247" />
  <path
     style="fill:#faf8ff;stroke-width:0.0288809"
     d="M 8.8953069,20.404136 C 5.2318752,20.308309 3.1749574,20.137348 2.4188877,19.865849 1.5439393,19.551662 0.86349548,18.855452 0.56845822,17.972544 -0.01033404,16.240493 -0.15761997,10.597829 0.29194501,7.3790614 0.48293063,6.0116543 0.72058634,5.4200174 1.3158152,4.8301669 1.8223828,4.3281766 2.368624,4.0775971 3.2491818,3.9432656 5.8959648,3.5394917 14.255185,3.4390801 18.859206,3.7557568 c 1.240525,0.085327 2.100947,0.193768 2.534643,0.3194482 0.957894,0.2775868 1.710733,0.9929111 2.028623,1.9275362 0.723328,2.1266483 0.730415,9.7573378 0.01112,11.9691068 -0.304246,0.935526 -1.074839,1.67333 -2.039739,1.952947 -0.713906,0.206882 -2.293467,0.341645 -5.307206,0.452794 -1.043743,0.03849 -6.03081,0.0569 -7.1913361,0.02655 z M 12.704566,13.790614 C 14.421613,12.813718 15.82647,12.007942 15.82647,12 15.82647,11.987156 9.6209031,8.4473794 9.5566738,8.4235861 9.5413652,8.4179151 9.5306859,9.8875648 9.5306859,12 c 0,2.112435 0.010679,3.582085 0.025988,3.576414 0.014293,-0.0053 1.4308451,-0.808905 3.1478921,-1.7858 z"
     id="path1292" />
</svg>
